<?xml version="1.0" encoding="UTF-8"?>
<svg xmlns="http://www.w3.org/2000/svg" viewBox="0 0 64 64" role="img" aria-label="RTM icon">
  <defs>
    <linearGradient id="bg" x1="12" y1="10" x2="52" y2="54" gradientUnits="userSpaceOnUse">
      <stop offset="0" stop-color="#3a7bff" />
      <stop offset="1" stop-color="#19c3ff" />
    </linearGradient>
    <linearGradient id="sheen" x1="20" y1="14" x2="42" y2="46" gradientUnits="userSpaceOnUse">
      <stop offset="0" stop-color="#ffffff" stop-opacity="0.7" />
      <stop offset="1" stop-color="#ffffff" stop-opacity="0" />
    </linearGradient>
  </defs>
  <rect x="6" y="6" width="52" height="52" rx="14" fill="url(#bg)" />
  <path d="M32 10c-6.4 8.6-12.8 15.1-12.8 23.4 0 8 6 14.6 12.8 14.6s12.8-6.6 12.8-14.6C44.8 25 38.4 18.6 32 10z" fill="#f8fbff" />
  <path d="M32 16.5c-4.4 6.2-8.8 10.9-8.8 17 0 5.5 4 10 8.8 10s8.8-4.5 8.8-10c0-6.2-4.4-10.9-8.8-17z" fill="url(#sheen)" />
  <path d="M24.5 34.5l5 5.2 10.5-12.5" fill="none" stroke="#0f62fe" stroke-width="3.2" stroke-linecap="round" stroke-linejoin="round" />
  <circle cx="24" cy="22" r="3.2" fill="#d6ecff" />
</svg>
